# xmcd
#
# Track frame offsets:
#	150
#	15362
#	39494
#	62703
#	78830
#	102245
#	123136
#	138754
#	154566
#	174790
#	191955
#	210693
#	228561
#	244773
#
# Disc length: 3428 seconds
#
# Revision: 1
# Processed by: cddbd v1.4PL0 Copyright (c) Steve Scherf et al.
# Submitted via: dBpowerAMP V4.0
#
DISCID=a80d620e
DTITLE=varios - 90 Graus
DYEAR=2000
DGENRE=nacional
TTITLE0=Pelados em Santos  - Mamonas Assassinas
TTITLE1=W/brasil (chama o Síndico)  - Jorge Ben Jor
TTITLE2=Garota Nacional  - Skank
TTITLE3=Anna Júlia  - Los Hermanos
TTITLE4=Fácil  - Jota Quest
TTITLE5=A Sombra da Maldade  - Cidade Negra
TTITLE6=Mulher de Fases  - Raimundos
TTITLE7=Por Você  - Barão Vermelho
TTITLE8=Pintura Íntima  - Kid Abelha
TTITLE9=Coisa de Maluco  - Fincabaute
TTITLE10=Conquista  - Claudinho and Buchecha
TTITLE11=Heloísa, Mexe a Cadeira  - Vinny
TTITLE12=Egyptian Strings  - Mohamed Arab
TTITLE13=Gaveta Empoeirada  - Piegas
EXTD=
EXTT0=
EXTT1=
EXTT2=
EXTT3=
EXTT4=
EXTT5=
EXTT6=
EXTT7=
EXTT8=
EXTT9=
EXTT10=
EXTT11=
EXTT12=
EXTT13=
PLAYORDER=
